# xmcd CD database file
#
# Track frame offsets:
#	150
#	14297
#	24718
#	30957
#	46165
#	57167
#	81339
#	96060
#	118765
#	125952
#	132652
#
# Disc length: 2051 seconds
#
# Revision: 1
# Processed by: cddbd v1.5.2PL0 Copyright (c) Steve Scherf et al.
# Submitted via: CDex 1.51
#
DISCID=9208010b
DTITLE=Grand Ole Opry - Grand Ole Opry Country Comedy Live Classics
DYEAR=2005
DGENRE=Country
TTITLE0=Six Foot Two By Four-Willis brothers
TTITLE1=Uncle Nabob and Marriage-Minnie Pearl
TTITLE2=No Room for Hillbillies-Cousin Jake
TTITLE3=I'm My Own Grandpaw-Lonzo/Oscar
TTITLE4=Herd of Turtles-Grand Pa Jones
TTITLE5=Women/The Wife-Archie Campbell
TTITLE6=Fingers-Lonzo/Oscar
TTITLE7=Bathin' Suits-Minnie Pearl
TTITLE8=Good Old Mountain Dew-Bashful Brother Oswald
TTITLE9=Sports Car-June Carter
TTITLE10=Pee Little Thrigs-Archie Campbell
EXTD=YEAR: 2005
EXTT0=
EXTT1=
EXTT2=
EXTT3=
EXTT4=
EXTT5=
EXTT6=
EXTT7=
EXTT8=
EXTT9=
EXTT10=
PLAYORDER=
